<mxfile host="Electron" modified="2024-10-03T14:18:40.163Z" agent="Mozilla/5.0 (Windows NT 10.0; Win64; x64) AppleWebKit/537.36 (KHTML, like Gecko) draw.io/23.0.2 Chrome/120.0.6099.109 Electron/28.1.0 Safari/537.36" etag="W9RMSa1w8QJ2T8HH3J4I" version="23.0.2" type="device">
  <diagram name="Page-1" id="WnzWa0WMhuD4JPWvIiKd">
    <mxGraphModel dx="2990" dy="2315" grid="0" gridSize="10" guides="1" tooltips="1" connect="1" arrows="1" fold="1" page="0" pageScale="1" pageWidth="827" pageHeight="1169" math="0" shadow="0">
      <root>
        <mxCell id="0" />
        <mxCell id="1" parent="0" />
        <mxCell id="2fhrXaiDqOY9LGFCvugv-13" value="" style="whiteSpace=wrap;html=1;aspect=fixed;fillColor=none;" parent="1" vertex="1">
          <mxGeometry x="-105.5" y="-404.5" width="1453" height="1453" as="geometry" />
        </mxCell>
        <mxCell id="2h4qjONwYcDiBXlOnqFd-2" value="" style="swimlane;startSize=0;" parent="1" vertex="1">
          <mxGeometry x="178" y="-117" width="886" height="878" as="geometry">
            <mxRectangle x="170" y="-150" width="50" height="40" as="alternateBounds" />
          </mxGeometry>
        </mxCell>
        <mxCell id="Jbd44Q2LdWO8JnMj0G4C-6" value="&lt;font style=&quot;font-size: 50px;&quot;&gt;&lt;b&gt;System&lt;/b&gt;&lt;/font&gt;" style="text;html=1;align=center;verticalAlign=middle;resizable=0;points=[];autosize=1;strokeColor=none;fillColor=none;" parent="2h4qjONwYcDiBXlOnqFd-2" vertex="1">
          <mxGeometry x="346" y="11" width="196" height="72" as="geometry" />
        </mxCell>
        <mxCell id="Jbd44Q2LdWO8JnMj0G4C-7" value="&lt;span style=&quot;font-size: 25px;&quot;&gt;Enters Details&lt;/span&gt;&lt;br&gt;&lt;font style=&quot;font-size: 15px;&quot;&gt;e.i. Fullname,Email,&lt;br&gt;Password,etc&lt;/font&gt;" style="ellipse;whiteSpace=wrap;html=1;" parent="2h4qjONwYcDiBXlOnqFd-2" vertex="1">
          <mxGeometry x="321" y="204" width="234" height="88" as="geometry" />
        </mxCell>
        <mxCell id="Jbd44Q2LdWO8JnMj0G4C-8" value="&lt;span style=&quot;font-size: 25px;&quot;&gt;Sign up&lt;/span&gt;" style="ellipse;whiteSpace=wrap;html=1;" parent="2h4qjONwYcDiBXlOnqFd-2" vertex="1">
          <mxGeometry x="89" y="142" width="139" height="55" as="geometry" />
        </mxCell>
        <mxCell id="Jbd44Q2LdWO8JnMj0G4C-9" value="&lt;font style=&quot;font-size: 25px;&quot;&gt;Enters ID-Pass&lt;/font&gt;" style="ellipse;whiteSpace=wrap;html=1;" parent="2h4qjONwYcDiBXlOnqFd-2" vertex="1">
          <mxGeometry x="356" y="481" width="196" height="72" as="geometry" />
        </mxCell>
        <mxCell id="Jbd44Q2LdWO8JnMj0G4C-13" value="&lt;font style=&quot;font-size: 25px;&quot;&gt;Login&lt;/font&gt;" style="ellipse;whiteSpace=wrap;html=1;" parent="2h4qjONwYcDiBXlOnqFd-2" vertex="1">
          <mxGeometry x="100.5" y="353" width="116" height="66" as="geometry" />
        </mxCell>
        <mxCell id="Jbd44Q2LdWO8JnMj0G4C-16" value="&lt;span style=&quot;font-size: 25px;&quot;&gt;Validating Details&lt;/span&gt;" style="ellipse;whiteSpace=wrap;html=1;" parent="2h4qjONwYcDiBXlOnqFd-2" vertex="1">
          <mxGeometry x="625" y="134.5" width="241" height="86" as="geometry" />
        </mxCell>
        <mxCell id="Jbd44Q2LdWO8JnMj0G4C-11" value="&lt;span style=&quot;font-size: 25px;&quot;&gt;Verify User&lt;/span&gt;" style="ellipse;whiteSpace=wrap;html=1;" parent="2h4qjONwYcDiBXlOnqFd-2" vertex="1">
          <mxGeometry x="665" y="437" width="185" height="66" as="geometry" />
        </mxCell>
        <mxCell id="Jbd44Q2LdWO8JnMj0G4C-10" value="&lt;span style=&quot;font-size: 25px;&quot;&gt;Add New User&lt;/span&gt;" style="ellipse;whiteSpace=wrap;html=1;" parent="2h4qjONwYcDiBXlOnqFd-2" vertex="1">
          <mxGeometry x="619" y="311" width="247" height="84" as="geometry" />
        </mxCell>
        <mxCell id="Jbd44Q2LdWO8JnMj0G4C-20" value="&lt;span style=&quot;font-size: 25px;&quot;&gt;Manage User&lt;/span&gt;" style="ellipse;whiteSpace=wrap;html=1;" parent="2h4qjONwYcDiBXlOnqFd-2" vertex="1">
          <mxGeometry x="622" y="524" width="247" height="80" as="geometry" />
        </mxCell>
        <mxCell id="Jbd44Q2LdWO8JnMj0G4C-142" value="&lt;span style=&quot;font-size: 25px;&quot;&gt;Views DashBoard&lt;/span&gt;" style="ellipse;whiteSpace=wrap;html=1;" parent="2h4qjONwYcDiBXlOnqFd-2" vertex="1">
          <mxGeometry x="73" y="735" width="221" height="77" as="geometry" />
        </mxCell>
        <mxCell id="1tXl3n-XA6iis2L_TplG-1" value="&lt;font style=&quot;font-size: 20px;&quot;&gt;&amp;lt;&amp;lt;include&amp;gt;&amp;gt;&lt;/font&gt;" style="endArrow=open;endSize=12;dashed=1;html=1;rounded=0;entryX=0;entryY=0.5;entryDx=0;entryDy=0;exitX=1;exitY=0.5;exitDx=0;exitDy=0;" parent="2h4qjONwYcDiBXlOnqFd-2" source="Jbd44Q2LdWO8JnMj0G4C-8" target="Jbd44Q2LdWO8JnMj0G4C-7" edge="1">
          <mxGeometry width="160" relative="1" as="geometry">
            <mxPoint x="222" y="285" as="sourcePoint" />
            <mxPoint x="382" y="285" as="targetPoint" />
          </mxGeometry>
        </mxCell>
        <mxCell id="1tXl3n-XA6iis2L_TplG-3" value="&lt;font style=&quot;font-size: 20px;&quot;&gt;&amp;lt;&amp;lt;include&amp;gt;&amp;gt;&lt;/font&gt;" style="endArrow=open;endSize=12;dashed=1;html=1;rounded=0;entryX=0;entryY=0.5;entryDx=0;entryDy=0;exitX=1;exitY=0.5;exitDx=0;exitDy=0;" parent="2h4qjONwYcDiBXlOnqFd-2" source="Jbd44Q2LdWO8JnMj0G4C-13" target="Jbd44Q2LdWO8JnMj0G4C-9" edge="1">
          <mxGeometry width="160" relative="1" as="geometry">
            <mxPoint x="244" y="258" as="sourcePoint" />
            <mxPoint x="349" y="337" as="targetPoint" />
          </mxGeometry>
        </mxCell>
        <mxCell id="1tXl3n-XA6iis2L_TplG-4" value="&lt;font style=&quot;font-size: 20px;&quot;&gt;&amp;lt;&amp;lt;include&amp;gt;&amp;gt;&lt;/font&gt;" style="endArrow=open;endSize=12;dashed=1;html=1;rounded=0;entryX=1;entryY=0.5;entryDx=0;entryDy=0;exitX=0;exitY=0.5;exitDx=0;exitDy=0;" parent="2h4qjONwYcDiBXlOnqFd-2" source="Jbd44Q2LdWO8JnMj0G4C-11" target="Jbd44Q2LdWO8JnMj0G4C-9" edge="1">
          <mxGeometry width="160" relative="1" as="geometry">
            <mxPoint x="226" y="556" as="sourcePoint" />
            <mxPoint x="380" y="619" as="targetPoint" />
          </mxGeometry>
        </mxCell>
        <mxCell id="1tXl3n-XA6iis2L_TplG-5" value="&lt;font style=&quot;font-size: 20px;&quot;&gt;&amp;lt;&amp;lt;include&amp;gt;&amp;gt;&lt;/font&gt;" style="endArrow=open;endSize=12;dashed=1;html=1;rounded=0;entryX=1;entryY=0.5;entryDx=0;entryDy=0;exitX=0;exitY=0.5;exitDx=0;exitDy=0;" parent="2h4qjONwYcDiBXlOnqFd-2" source="Jbd44Q2LdWO8JnMj0G4C-16" target="Jbd44Q2LdWO8JnMj0G4C-7" edge="1">
          <mxGeometry width="160" relative="1" as="geometry">
            <mxPoint x="651" y="601" as="sourcePoint" />
            <mxPoint x="548" y="644" as="targetPoint" />
          </mxGeometry>
        </mxCell>
        <mxCell id="-TRwqyZ3XctmnMA-O-UG-2" value="&lt;font style=&quot;font-size: 25px;&quot;&gt;Forgot Password&lt;/font&gt;" style="ellipse;whiteSpace=wrap;html=1;" parent="2h4qjONwYcDiBXlOnqFd-2" vertex="1">
          <mxGeometry x="63" y="533" width="203" height="76" as="geometry" />
        </mxCell>
        <mxCell id="-TRwqyZ3XctmnMA-O-UG-1" value="&lt;font style=&quot;font-size: 20px;&quot;&gt;&amp;lt;&amp;lt;extend&amp;gt;&amp;gt;&lt;/font&gt;" style="endArrow=open;endSize=12;dashed=1;html=1;rounded=0;entryX=0.5;entryY=1;entryDx=0;entryDy=0;exitX=0.5;exitY=0;exitDx=0;exitDy=0;" parent="2h4qjONwYcDiBXlOnqFd-2" source="-TRwqyZ3XctmnMA-O-UG-2" target="Jbd44Q2LdWO8JnMj0G4C-13" edge="1">
          <mxGeometry width="160" relative="1" as="geometry">
            <mxPoint x="227" y="671" as="sourcePoint" />
            <mxPoint x="362" y="723" as="targetPoint" />
          </mxGeometry>
        </mxCell>
        <mxCell id="-TRwqyZ3XctmnMA-O-UG-3" value="&lt;font style=&quot;font-size: 20px;&quot;&gt;&amp;lt;&amp;lt;extend&amp;gt;&amp;gt;&lt;/font&gt;" style="endArrow=open;endSize=12;dashed=1;html=1;rounded=0;entryX=0.5;entryY=0;entryDx=0;entryDy=0;exitX=0.5;exitY=1;exitDx=0;exitDy=0;" parent="2h4qjONwYcDiBXlOnqFd-2" source="Jbd44Q2LdWO8JnMj0G4C-8" target="Jbd44Q2LdWO8JnMj0G4C-13" edge="1">
          <mxGeometry width="160" relative="1" as="geometry">
            <mxPoint x="250" y="698" as="sourcePoint" />
            <mxPoint x="209" y="579" as="targetPoint" />
          </mxGeometry>
        </mxCell>
        <mxCell id="jgeXSCVWvLsfPdvNZmUG-2" value="&lt;font style=&quot;font-size: 25px;&quot;&gt;OTP Varification&lt;/font&gt;" style="ellipse;whiteSpace=wrap;html=1;" vertex="1" parent="2h4qjONwYcDiBXlOnqFd-2">
          <mxGeometry x="336.5" y="350" width="203" height="76" as="geometry" />
        </mxCell>
        <mxCell id="jgeXSCVWvLsfPdvNZmUG-3" value="&lt;font style=&quot;font-size: 20px;&quot;&gt;&amp;lt;&amp;lt;include&amp;gt;&amp;gt;&lt;/font&gt;" style="endArrow=open;endSize=12;dashed=1;html=1;rounded=0;entryX=0.5;entryY=1;entryDx=0;entryDy=0;exitX=0.5;exitY=0;exitDx=0;exitDy=0;" edge="1" source="jgeXSCVWvLsfPdvNZmUG-2" parent="2h4qjONwYcDiBXlOnqFd-2" target="Jbd44Q2LdWO8JnMj0G4C-7">
          <mxGeometry width="160" relative="1" as="geometry">
            <mxPoint x="510" y="507" as="sourcePoint" />
            <mxPoint x="432" y="284" as="targetPoint" />
          </mxGeometry>
        </mxCell>
        <mxCell id="2h4qjONwYcDiBXlOnqFd-16" value="&lt;font style=&quot;font-size: 25px;&quot;&gt;Admin&lt;/font&gt;" style="shape=umlActor;verticalLabelPosition=bottom;verticalAlign=top;html=1;outlineConnect=0;" parent="1" vertex="1">
          <mxGeometry x="1121" y="243" width="150" height="200" as="geometry" />
        </mxCell>
        <mxCell id="Jbd44Q2LdWO8JnMj0G4C-23" value="" style="endArrow=none;html=1;rounded=0;exitX=1;exitY=0.5;exitDx=0;exitDy=0;entryX=0.5;entryY=0.5;entryDx=0;entryDy=0;entryPerimeter=0;" parent="1" source="Jbd44Q2LdWO8JnMj0G4C-16" target="2h4qjONwYcDiBXlOnqFd-16" edge="1">
          <mxGeometry width="50" height="50" relative="1" as="geometry">
            <mxPoint x="990" y="40" as="sourcePoint" />
            <mxPoint x="1373" y="537" as="targetPoint" />
          </mxGeometry>
        </mxCell>
        <mxCell id="Jbd44Q2LdWO8JnMj0G4C-26" value="" style="endArrow=none;html=1;rounded=0;entryX=0.5;entryY=0.5;entryDx=0;entryDy=0;exitX=1;exitY=0.5;exitDx=0;exitDy=0;entryPerimeter=0;" parent="1" source="Jbd44Q2LdWO8JnMj0G4C-10" target="2h4qjONwYcDiBXlOnqFd-16" edge="1">
          <mxGeometry width="50" height="50" relative="1" as="geometry">
            <mxPoint x="1013" y="301" as="sourcePoint" />
            <mxPoint x="1373" y="535" as="targetPoint" />
          </mxGeometry>
        </mxCell>
        <mxCell id="Jbd44Q2LdWO8JnMj0G4C-30" value="" style="endArrow=none;html=1;rounded=0;entryX=0.5;entryY=0.5;entryDx=0;entryDy=0;exitX=1;exitY=0.5;exitDx=0;exitDy=0;entryPerimeter=0;" parent="1" source="Jbd44Q2LdWO8JnMj0G4C-11" target="2h4qjONwYcDiBXlOnqFd-16" edge="1">
          <mxGeometry width="50" height="50" relative="1" as="geometry">
            <mxPoint x="996" y="447" as="sourcePoint" />
            <mxPoint x="1373" y="535" as="targetPoint" />
          </mxGeometry>
        </mxCell>
        <mxCell id="Jbd44Q2LdWO8JnMj0G4C-41" value="" style="endArrow=none;html=1;rounded=0;entryX=0.5;entryY=0.5;entryDx=0;entryDy=0;exitX=1;exitY=0.5;exitDx=0;exitDy=0;entryPerimeter=0;" parent="1" source="Jbd44Q2LdWO8JnMj0G4C-20" target="2h4qjONwYcDiBXlOnqFd-16" edge="1">
          <mxGeometry width="50" height="50" relative="1" as="geometry">
            <mxPoint x="924" y="247" as="sourcePoint" />
            <mxPoint x="1373" y="535" as="targetPoint" />
          </mxGeometry>
        </mxCell>
        <mxCell id="FKvF8zgE32GSNqz78V3z-2" value="&lt;span style=&quot;font-size: 25px;&quot;&gt;Teacher&lt;/span&gt;" style="shape=umlActor;verticalLabelPosition=bottom;verticalAlign=top;html=1;outlineConnect=0;" parent="1" vertex="1">
          <mxGeometry x="-71" y="88" width="150" height="200" as="geometry" />
        </mxCell>
        <mxCell id="FKvF8zgE32GSNqz78V3z-1" value="&lt;span style=&quot;font-size: 25px;&quot;&gt;Student&lt;/span&gt;" style="shape=umlActor;verticalLabelPosition=bottom;verticalAlign=top;html=1;outlineConnect=0;" parent="1" vertex="1">
          <mxGeometry x="-71" y="418" width="150" height="200" as="geometry" />
        </mxCell>
        <mxCell id="2fhrXaiDqOY9LGFCvugv-7" value="" style="endArrow=none;html=1;rounded=0;entryX=0;entryY=0.5;entryDx=0;entryDy=0;exitX=0.5;exitY=0.5;exitDx=0;exitDy=0;exitPerimeter=0;" parent="1" source="FKvF8zgE32GSNqz78V3z-2" target="Jbd44Q2LdWO8JnMj0G4C-142" edge="1">
          <mxGeometry width="50" height="50" relative="1" as="geometry">
            <mxPoint x="57" y="404" as="sourcePoint" />
            <mxPoint x="225" y="71" as="targetPoint" />
          </mxGeometry>
        </mxCell>
        <mxCell id="Jbd44Q2LdWO8JnMj0G4C-24" value="" style="endArrow=none;html=1;rounded=0;entryX=0;entryY=0.5;entryDx=0;entryDy=0;exitX=0.5;exitY=0.5;exitDx=0;exitDy=0;exitPerimeter=0;" parent="1" source="FKvF8zgE32GSNqz78V3z-2" target="Jbd44Q2LdWO8JnMj0G4C-8" edge="1">
          <mxGeometry width="50" height="50" relative="1" as="geometry">
            <mxPoint x="47" y="394" as="sourcePoint" />
            <mxPoint x="51" y="474" as="targetPoint" />
          </mxGeometry>
        </mxCell>
        <mxCell id="Jbd44Q2LdWO8JnMj0G4C-32" value="" style="endArrow=none;html=1;rounded=0;entryX=0;entryY=0.5;entryDx=0;entryDy=0;exitX=0.5;exitY=0.5;exitDx=0;exitDy=0;exitPerimeter=0;" parent="1" source="FKvF8zgE32GSNqz78V3z-2" target="Jbd44Q2LdWO8JnMj0G4C-13" edge="1">
          <mxGeometry width="50" height="50" relative="1" as="geometry">
            <mxPoint x="47" y="393" as="sourcePoint" />
            <mxPoint x="229" y="897" as="targetPoint" />
          </mxGeometry>
        </mxCell>
        <mxCell id="2fhrXaiDqOY9LGFCvugv-9" value="" style="endArrow=none;html=1;rounded=0;entryX=0;entryY=0.5;entryDx=0;entryDy=0;exitX=0.5;exitY=0.5;exitDx=0;exitDy=0;exitPerimeter=0;" parent="1" source="FKvF8zgE32GSNqz78V3z-1" target="Jbd44Q2LdWO8JnMj0G4C-142" edge="1">
          <mxGeometry width="50" height="50" relative="1" as="geometry">
            <mxPoint x="-288" y="66" as="sourcePoint" />
            <mxPoint x="232" y="484" as="targetPoint" />
          </mxGeometry>
        </mxCell>
        <mxCell id="2fhrXaiDqOY9LGFCvugv-10" value="" style="endArrow=none;html=1;rounded=0;entryX=0;entryY=0.5;entryDx=0;entryDy=0;exitX=0.5;exitY=0.5;exitDx=0;exitDy=0;exitPerimeter=0;" parent="1" source="FKvF8zgE32GSNqz78V3z-1" target="Jbd44Q2LdWO8JnMj0G4C-13" edge="1">
          <mxGeometry width="50" height="50" relative="1" as="geometry">
            <mxPoint x="-278" y="76" as="sourcePoint" />
            <mxPoint x="242" y="494" as="targetPoint" />
          </mxGeometry>
        </mxCell>
        <mxCell id="2fhrXaiDqOY9LGFCvugv-11" value="" style="endArrow=none;html=1;rounded=0;entryX=0;entryY=0.5;entryDx=0;entryDy=0;exitX=0.5;exitY=0.5;exitDx=0;exitDy=0;exitPerimeter=0;" parent="1" source="FKvF8zgE32GSNqz78V3z-1" target="Jbd44Q2LdWO8JnMj0G4C-8" edge="1">
          <mxGeometry width="50" height="50" relative="1" as="geometry">
            <mxPoint x="-268" y="86" as="sourcePoint" />
            <mxPoint x="252" y="504" as="targetPoint" />
          </mxGeometry>
        </mxCell>
      </root>
    </mxGraphModel>
  </diagram>
</mxfile>
